<?xml version="1.0" standalone="no"?><!DOCTYPE svg PUBLIC "-//W3C//DTD SVG 1.1//EN" "http://www.w3.org/Graphics/SVG/1.1/DTD/svg11.dtd"><svg t="1732064531202" class="icon" viewBox="0 0 1024 1024" version="1.1" xmlns="http://www.w3.org/2000/svg" p-id="17253" xmlns:xlink="http://www.w3.org/1999/xlink" width="64" height="64"><path d="M232.37973333 424.61866667l38.77546667 118.51093333H193.60426667z" fill="#E88C13" p-id="17254"></path><path d="M533.84533333 428.4416c-8.192-7.09973333-19.6608-10.92266667-34.95253333-10.92266667H435.54133333v79.73546667h59.52853334c17.47626667 0 30.03733333-3.82293333 38.22933333-10.92266667s12.56106667-17.47626667 12.56106667-30.03733333c0.54613333-11.4688-3.82293333-20.75306667-12.01493334-27.8528z m0 0c-8.192-7.09973333-19.6608-10.92266667-34.95253333-10.92266667H435.54133333v79.73546667h59.52853334c17.47626667 0 30.03733333-3.82293333 38.22933333-10.92266667s12.56106667-17.47626667 12.56106667-30.03733333c0.54613333-11.4688-3.82293333-20.75306667-12.01493334-27.8528zM511.45386667 9.55733333c-277.43573333 0-502.44266667 225.00693333-502.44266667 502.44266667 0 138.71786667 56.25173333 264.32853333 147.456 355.5328 91.20426667 91.20426667 216.81493333 147.456 355.5328 147.456 277.98186667 0 502.9888-225.00693333 502.9888-502.9888-0.54613333-277.43573333-225.55306667-502.44266667-503.53493333-502.44266667zM305.01546667 644.7104l-21.2992-63.35146667H181.58933333l-20.75306666 63.35146667h-40.96l87.92746666-265.4208h58.9824l89.01973334 265.4208h-50.7904z m289.45066666 0h-50.7904l-40.96-109.22666667H435.54133333v109.22666667h-48.05973333V379.2896h115.23413333c32.22186667 0 55.7056 7.09973333 70.4512 21.84533333 15.29173333 14.19946667 22.39146667 33.31413333 22.39146667 56.25173334 0 33.86026667-15.83786667 57.344-48.05973333 70.4512l46.96746666 116.87253333z m260.5056 0V412.60373333l-73.728 232.10666667h-25.12213333l-73.728-232.10666667v232.10666667H643.072V379.2896h74.82026667L774.144 550.22933333l54.61333333-170.93973333h75.3664v265.4208h-49.152zM533.84533333 428.4416c-8.192-7.09973333-19.6608-10.92266667-34.95253333-10.92266667H435.54133333v79.73546667h59.52853334c17.47626667 0 30.03733333-3.82293333 38.22933333-10.92266667s12.56106667-17.47626667 12.56106667-30.03733333c0.54613333-11.4688-3.82293333-20.75306667-12.01493334-27.8528z" fill="#E88C13" p-id="17255"></path></svg>