<?xml version="1.0" standalone="no"?><!DOCTYPE svg PUBLIC "-//W3C//DTD SVG 1.1//EN" "http://www.w3.org/Graphics/SVG/1.1/DTD/svg11.dtd"><svg t="1732007637679" class="icon" viewBox="0 0 1025 1024" version="1.1" xmlns="http://www.w3.org/2000/svg" p-id="17098" xmlns:xlink="http://www.w3.org/1999/xlink" width="64.0625" height="64"><path d="M192 430.592l42.496 113.152H150.528z" fill="#E88C13" p-id="17099"></path><path d="M559.104 423.936c-5.632-6.144-13.312-10.24-23.04-11.776-5.12-0.512-19.968-1.024-45.056-1.024h-48.128v77.824h57.856c9.216 0 17.408-0.512 23.552-1.024 9.216-0.512 15.872-1.536 19.456-3.072 7.68-2.56 13.312-6.656 17.408-12.8 4.096-6.144 6.144-13.824 6.144-23.04 0-10.752-2.56-18.944-8.192-25.088zM512 0C229.376 0 0 228.864 0 512c0 141.312 57.344 269.312 150.016 362.496 93.184 92.16 221.184 149.504 362.496 149.504 283.136 0 512.512-229.376 512.512-512.512C1024.512 228.864 795.136 0 512 0zM280.576 665.088l-26.624-69.632H131.584l-25.088 69.632H40.96l119.296-306.176H225.792l122.368 306.176H280.576z m301.568 0l-44.544-66.56c-6.656-10.24-12.8-18.944-17.92-26.112h32.256l-27.648-84.992c9.216-0.512 15.872-1.536 19.456-3.072 7.68-2.56 13.312-6.656 17.408-12.8 4.096-6.144 6.144-13.824 6.144-23.04 0-10.24-2.56-18.432-8.192-25.088-5.632-6.144-13.312-10.24-23.04-11.776-5.12-0.512-19.968-1.024-45.056-1.024h-48.128v77.824h57.856l-16.896 51.712c-6.656-1.536-15.872-2.56-28.16-2.56h-12.288v128H380.928V358.912h130.048c32.768 0 56.32 2.56 71.168 8.192 14.848 5.632 26.624 15.36 35.84 29.184 8.704 14.336 13.312 30.208 13.312 48.128 0 23.04-6.656 41.984-20.48 56.832-13.312 14.848-33.792 24.576-60.416 28.16 13.312 7.68 24.576 16.384 33.28 25.6s20.48 25.6 35.328 49.664l37.376 59.904h-74.24z m344.576 0v-240.64l-60.928 240.64h-59.392l-60.416-240.64v240.64h-57.344V358.912h92.672l55.296 208.896L891.392 358.912h92.672v306.176h-57.344z" fill="#E88C13" p-id="17100"></path><path d="M551.936 572.416H473.088l10.752-32.768 16.896-51.2 11.776-36.864 11.776 35.84z" fill="#E88C13" p-id="17101"></path><path d="M524.288 487.424c-6.656 0.512-14.336 0.512-23.552 1.024l-16.896 51.712c1.024 0 2.048 0.512 2.56 1.024 6.656 2.56 12.8 6.656 18.432 12.8 3.072 3.584 8.192 9.728 14.848 18.944h32.256l-27.648-85.504z" fill="#FFFFFF" p-id="17102"></path></svg>